<svg
    width="24"
    height="24"
    viewBox="0 0 24 24"
    fill="none"
    xmlns="http://www.w3.org/2000/svg"
>
    <path
        d="M5.09202 21.782L4.63803 22.673H4.63803L5.09202 21.782ZM4.21799 20.908L3.32698 21.362H3.32698L4.21799 20.908ZM15.782 20.908L16.673 21.362L15.782 20.908ZM14.908 21.782L15.362 22.673L15.362 22.673L14.908 21.782ZM14.908 6.21799L14.454 7.10899L14.908 6.21799ZM15.782 7.09202L14.891 7.54601L15.782 7.09202ZM5.09202 6.21799L5.54601 7.10899H5.54601L5.09202 6.21799ZM4.21799 7.09202L3.32698 6.63803L4.21799 7.09202ZM19.782 16.908L18.891 16.454L19.782 16.908ZM18.908 17.782L18.454 16.891L18.908 17.782ZM18.908 2.21799L19.362 1.32698V1.32698L18.908 2.21799ZM19.782 3.09202L18.891 3.54601V3.54601L19.782 3.09202ZM9.09202 2.21799L8.63803 1.32698V1.32698L9.09202 2.21799ZM8.21799 3.09202L9.10899 3.54601V3.54601L8.21799 3.09202ZM9.14017 15.8893L8.43037 15.1849H8.43037L9.14017 15.8893ZM13.7098 12.7044C14.0988 12.3124 14.0964 11.6792 13.7044 11.2902C13.3124 10.9012 12.6792 10.9036 12.2902 11.2956L13.7098 12.7044ZM8.60984 15.8893L9.31963 15.1849H9.31963L8.60984 15.8893ZM7.70979 13.5628C7.32076 13.1708 6.6876 13.1684 6.29559 13.5574C5.90358 13.9464 5.90117 14.5796 6.29021 14.9716L7.70979 13.5628ZM7.2 7H12.8V5H7.2V7ZM15 9.2V18.8H17V9.2H15ZM12.8 21H7.2V23H12.8V21ZM5 18.8V9.2H3V18.8H5ZM7.2 21C6.62345 21 6.25117 20.9992 5.96784 20.9761C5.69617 20.9539 5.59545 20.9162 5.54601 20.891L4.63803 22.673C5.01641 22.8658 5.40963 22.9371 5.80497 22.9694C6.18864 23.0008 6.65645 23 7.2 23V21ZM3 18.8C3 19.3436 2.99922 19.8114 3.03057 20.195C3.06287 20.5904 3.13419 20.9836 3.32698 21.362L5.10899 20.454C5.0838 20.4045 5.04612 20.3038 5.02393 20.0322C5.00078 19.7488 5 19.3766 5 18.8H3ZM5.54601 20.891C5.35785 20.7951 5.20487 20.6422 5.10899 20.454L3.32698 21.362C3.6146 21.9265 4.07354 22.3854 4.63803 22.673L5.54601 20.891ZM15 18.8C15 19.3766 14.9992 19.7488 14.9761 20.0322C14.9539 20.3038 14.9162 20.4045 14.891 20.454L16.673 21.362C16.8658 20.9836 16.9371 20.5904 16.9694 20.195C17.0008 19.8114 17 19.3436 17 18.8H15ZM12.8 23C13.3436 23 13.8114 23.0008 14.195 22.9694C14.5904 22.9371 14.9836 22.8658 15.362 22.673L14.454 20.891C14.4045 20.9162 14.3038 20.9539 14.0322 20.9761C13.7488 20.9992 13.3766 21 12.8 21V23ZM14.891 20.454C14.7951 20.6422 14.6422 20.7951 14.454 20.891L15.362 22.673C15.9265 22.3854 16.3854 21.9265 16.673 21.362L14.891 20.454ZM12.8 7C13.3766 7 13.7488 7.00078 14.0322 7.02393C14.3038 7.04612 14.4045 7.0838 14.454 7.10899L15.362 5.32698C14.9836 5.13419 14.5904 5.06287 14.195 5.03057C13.8114 4.99922 13.3436 5 12.8 5V7ZM17 9.2C17 8.65645 17.0008 8.18864 16.9694 7.80497C16.9371 7.40963 16.8658 7.01641 16.673 6.63803L14.891 7.54601C14.9162 7.59545 14.9539 7.69617 14.9761 7.96784C14.9992 8.25117 15 8.62345 15 9.2H17ZM14.454 7.10899C14.6422 7.20487 14.7951 7.35785 14.891 7.54601L16.673 6.63803C16.3854 6.07354 15.9265 5.6146 15.362 5.32698L14.454 7.10899ZM7.2 5C6.65645 5 6.18864 4.99922 5.80497 5.03057C5.40963 5.06287 5.01641 5.13419 4.63803 5.32698L5.54601 7.10899C5.59545 7.0838 5.69617 7.04612 5.96784 7.02393C6.25117 7.00078 6.62345 7 7.2 7V5ZM5 9.2C5 8.62345 5.00078 8.25117 5.02393 7.96784C5.04612 7.69617 5.0838 7.59545 5.10899 7.54601L3.32698 6.63803C3.13419 7.01641 3.06287 7.40963 3.03057 7.80497C2.99922 8.18864 3 8.65645 3 9.2H5ZM4.63803 5.32698C4.07354 5.6146 3.6146 6.07354 3.32698 6.63803L5.10899 7.54601C5.20487 7.35785 5.35785 7.20487 5.54601 7.10899L4.63803 5.32698ZM11.2 3H16.8V1H11.2V3ZM19 5.2V14.8H21V5.2H19ZM19 14.8C19 15.3766 18.9992 15.7488 18.9761 16.0322C18.9539 16.3038 18.9162 16.4045 18.891 16.454L20.673 17.362C20.8658 16.9836 20.9371 16.5904 20.9694 16.195C21.0008 15.8114 21 15.3436 21 14.8H19ZM16.8 19C17.3436 19 17.8114 19.0008 18.195 18.9694C18.5904 18.9371 18.9836 18.8658 19.362 18.673L18.454 16.891C18.4045 16.9162 18.3038 16.9539 18.0322 16.9761C17.7488 16.9992 17.3766 17 16.8 17V19ZM18.891 16.454C18.7951 16.6422 18.6422 16.7951 18.454 16.891L19.362 18.673C19.9265 18.3854 20.3854 17.9265 20.673 17.362L18.891 16.454ZM16.8 3C17.3766 3 17.7488 3.00078 18.0322 3.02393C18.3038 3.04612 18.4045 3.0838 18.454 3.10899L19.362 1.32698C18.9836 1.13419 18.5904 1.06287 18.195 1.03057C17.8114 0.999222 17.3436 1 16.8 1V3ZM21 5.2C21 4.65645 21.0008 4.18864 20.9694 3.80497C20.9371 3.40963 20.8658 3.01641 20.673 2.63803L18.891 3.54601C18.9162 3.59545 18.9539 3.69617 18.9761 3.96784C18.9992 4.25117 19 4.62345 19 5.2H21ZM18.454 3.10899C18.6422 3.20487 18.7951 3.35785 18.891 3.54601L20.673 2.63803C20.3854 2.07354 19.9265 1.6146 19.362 1.32698L18.454 3.10899ZM11.2 1C10.6564 1 10.1886 0.999222 9.80497 1.03057C9.40963 1.06287 9.01641 1.13419 8.63803 1.32698L9.54601 3.10899C9.59545 3.0838 9.69617 3.04612 9.96784 3.02393C10.2512 3.00078 10.6234 3 11.2 3V1ZM9 5.2C9 4.62345 9.00078 4.25117 9.02393 3.96784C9.04612 3.69617 9.0838 3.59545 9.10899 3.54601L7.32698 2.63803C7.13419 3.01641 7.06287 3.40963 7.03057 3.80497C6.99922 4.18864 7 4.65645 7 5.2H9ZM8.63803 1.32698C8.07354 1.6146 7.6146 2.07354 7.32698 2.63803L9.10899 3.54601C9.20487 3.35785 9.35785 3.20487 9.54601 3.10899L8.63803 1.32698ZM9.84996 16.5937L13.7098 12.7044L12.2902 11.2956L8.43037 15.1849L9.84996 16.5937ZM9.31963 15.1849L7.70979 13.5628L6.29021 14.9716L7.90004 16.5937L9.31963 15.1849ZM8.43037 15.1849C8.67506 14.9384 9.07494 14.9384 9.31963 15.1849L7.90004 16.5937C8.43762 17.1354 9.31238 17.1354 9.84996 16.5937L8.43037 15.1849Z"
        fill="white"
    />
</svg>