<svg
    width="18"
    height="18"
    viewBox="0 0 14 18"
    fill="none"
    xmlns="http://www.w3.org/2000/svg"
>
    <path
        d="M10.6 13.5C11.4401 13.5 11.8601 13.5 12.181 13.3365C12.4632 13.1927 12.6927 12.9632 12.8365 12.681C13 12.3601 13 11.9401 13 11.1V3.9C13 3.05992 13 2.63988 12.8365 2.31901C12.6927 2.03677 12.4632 1.8073 12.181 1.66349C11.8601 1.5 11.4401 1.5 10.6 1.5H6.4C5.55992 1.5 5.13988 1.5 4.81901 1.66349C4.53677 1.8073 4.3073 2.03677 4.16349 2.31901C4 2.63988 4 3.05992 4 3.9M3.4 16.5H7.6C8.44008 16.5 8.86012 16.5 9.18099 16.3365C9.46323 16.1927 9.6927 15.9632 9.83651 15.681C10 15.3601 10 14.9401 10 14.1V6.9C10 6.05992 10 5.63988 9.83651 5.31901C9.6927 5.03677 9.46323 4.8073 9.18099 4.66349C8.86012 4.5 8.44008 4.5 7.6 4.5H3.4C2.55992 4.5 2.13988 4.5 1.81901 4.66349C1.53677 4.8073 1.3073 5.03677 1.16349 5.31901C1 5.63988 1 6.05992 1 6.9V14.1C1 14.9401 1 15.3601 1.16349 15.681C1.3073 15.9632 1.53677 16.1927 1.81901 16.3365C2.13988 16.5 2.55992 16.5 3.4 16.5Z"
        stroke="white"
        strokeOpacity="0.5"
        strokeWidth="1.5"
    />
</svg>

