<svg
    width="24"
    height="24"
    viewBox="0 0 24 24"
    fill="none"
    xmlns="http://www.w3.org/2000/svg"
>
    <path
        d="M2.9095 10.8282L3.81811 11.2459L3.81811 11.2459L2.9095 10.8282ZM21.0913 13.1718L20.1827 12.7541L21.0913 13.1718ZM2.9095 13.1718L2.00089 13.5894H2.00089L2.9095 13.1718ZM21.0913 10.8282L20.1827 11.2459V11.2459L21.0913 10.8282ZM17.9678 5.75789C17.5041 5.45792 16.885 5.59066 16.585 6.05438C16.285 6.5181 16.4178 7.13719 16.8815 7.43716L17.9678 5.75789ZM7.1616 16.59C6.69622 16.2926 6.07787 16.4288 5.78049 16.8942C5.48311 17.3596 5.6193 17.9779 6.08469 18.2753L7.1616 16.59ZM3.20093 15.6017C3.53267 16.0432 4.15955 16.1322 4.6011 15.8005C5.04265 15.4687 5.13166 14.8418 4.79992 14.4003L3.20093 15.6017ZM13.8015 6.18005C14.3427 6.28992 14.8706 5.94022 14.9804 5.39897C15.0903 4.85772 14.7406 4.32989 14.1994 4.22002L13.8015 6.18005ZM20.7075 4.70711C21.098 4.31658 21.098 3.68342 20.7075 3.29289C20.317 2.90237 19.6838 2.90237 19.2933 3.29289L20.7075 4.70711ZM3.2933 19.2929C2.90278 19.6834 2.90278 20.3166 3.2933 20.7071C3.68383 21.0976 4.31699 21.0976 4.70752 20.7071L3.2933 19.2929ZM12.0004 4C7.56168 4 3.73907 6.62905 2.00089 10.4106L3.81811 11.2459C5.24213 8.14781 8.3715 6 12.0004 6V4ZM12.0004 20C16.4392 20 20.2618 17.371 22 13.5894L20.1827 12.7541C18.7587 15.8522 15.6293 18 12.0004 18V20ZM2.00089 10.4106C1.53746 11.4188 1.53746 12.5812 2.00089 13.5894L3.81811 12.7541C3.59839 12.2761 3.59839 11.7239 3.81811 11.2459L2.00089 10.4106ZM20.1827 11.2459C20.4025 11.7239 20.4025 12.2761 20.1827 12.7541L22 13.5894C22.4634 12.5812 22.4634 11.4188 22 10.4106L20.1827 11.2459ZM22 10.4106C21.1226 8.50182 19.7158 6.88861 17.9678 5.75789L16.8815 7.43716C18.3133 8.36336 19.4653 9.68497 20.1827 11.2459L22 10.4106ZM6.08469 18.2753C7.79347 19.3672 9.82458 20 12.0004 20V18C10.2174 18 8.55838 17.4826 7.1616 16.59L6.08469 18.2753ZM2.00089 13.5894C2.32986 14.3051 2.73322 14.9791 3.20093 15.6017L4.79992 14.4003C4.41693 13.8905 4.08699 13.3391 3.81811 12.7541L2.00089 13.5894ZM14.1994 4.22002C13.488 4.07563 12.7525 4 12.0004 4V6C12.6182 6 13.2204 6.06209 13.8015 6.18005L14.1994 4.22002ZM9.17199 14.8284C10.7341 16.3905 13.2667 16.3905 14.8288 14.8284L13.4146 13.4142C12.6336 14.1953 11.3673 14.1953 10.5862 13.4142L9.17199 14.8284ZM14.8288 14.8284C16.3909 13.2663 16.3909 10.7337 14.8288 9.17157L13.4146 10.5858C14.1957 11.3668 14.1957 12.6332 13.4146 13.4142L14.8288 14.8284ZM19.2933 3.29289L3.2933 19.2929L4.70752 20.7071L20.7075 4.70711L19.2933 3.29289Z"
        fill="#FFFFFF"
    />
</svg>