<svg
    width="24"
    height="24"
    viewBox="0 0 24 24"
    fill="none"
    xmlns="http://www.w3.org/2000/svg"
>
    <g clip-path="url(#clip0_803_17722)">
        <path
            d="M9.22225 12.1895L8.51514 11.4824L9.22225 12.1895ZM14.6483 8.1777C15.0388 7.78717 15.0388 7.15401 14.6483 6.76348C14.2578 6.37296 13.6246 6.37296 13.2341 6.76348L14.6483 8.1777ZM8.30717 12.1895L7.60006 12.8966V12.8966L8.30717 12.1895ZM6.88358 9.35172C6.49305 8.96119 5.85989 8.96119 5.46936 9.35172C5.07884 9.74224 5.07884 10.3754 5.46936 10.7659L6.88358 9.35172ZM22.2929 23.7071C22.6834 24.0976 23.3166 24.0976 23.7071 23.7071C24.0976 23.3166 24.0976 22.6834 23.7071 22.2929L22.2929 23.7071ZM9.92935 12.8966L14.6483 8.1777L13.2341 6.76348L8.51514 11.4824L9.92935 12.8966ZM9.01427 11.4824L6.88358 9.35172L5.46936 10.7659L7.60006 12.8966L9.01427 11.4824ZM8.51514 11.4824C8.65297 11.3446 8.87644 11.3446 9.01427 11.4824L7.60006 12.8966C8.24328 13.5398 9.28614 13.5398 9.92935 12.8966L8.51514 11.4824ZM18.1176 10.0588C18.1176 14.5096 14.5096 18.1176 10.0588 18.1176V20.1176C15.6142 20.1176 20.1176 15.6142 20.1176 10.0588H18.1176ZM10.0588 18.1176C5.60806 18.1176 2 14.5096 2 10.0588H0C0 15.6142 4.50349 20.1176 10.0588 20.1176V18.1176ZM2 10.0588C2 5.60806 5.60806 2 10.0588 2V0C4.50349 0 0 4.50349 0 10.0588H2ZM10.0588 2C14.5096 2 18.1176 5.60806 18.1176 10.0588H20.1176C20.1176 4.50349 15.6142 0 10.0588 0V2ZM15.8223 17.2365L22.2929 23.7071L23.7071 22.2929L17.2365 15.8223L15.8223 17.2365Z"
            fill="#FFFFFF"
        />
    </g>
    <defs>
        <clipPath id="clip0_803_17722">
            <rect width="24" height="24" fill="white" />
        </clipPath>
    </defs>
</svg>