<svg
    width="24"
    height="24"
    viewBox="0 0 24 24"
    fill="none"
    xmlns="http://www.w3.org/2000/svg"
>
    <g clip-path="url(#clip0_803_17723)">
        <path
            d="M22.2929 23.7071C22.6834 24.0976 23.3166 24.0976 23.7071 23.7071C24.0976 23.3166 24.0976 22.6834 23.7071 22.2929L22.2929 23.7071ZM11.94 13.3539C12.3305 13.7444 12.9636 13.7444 13.3542 13.3539C13.7447 12.9633 13.7447 12.3302 13.3542 11.9397L11.94 13.3539ZM8.17774 6.76323C7.78721 6.3727 7.15405 6.3727 6.76352 6.76323C6.373 7.15375 6.373 7.78692 6.76352 8.17744L8.17774 6.76323ZM6.76348 11.9403C6.37296 12.3308 6.37296 12.9639 6.76348 13.3545C7.15401 13.745 7.78717 13.745 8.1777 13.3545L6.76348 11.9403ZM13.3541 8.17804C13.7446 7.78751 13.7446 7.15435 13.3541 6.76382C12.9636 6.3733 12.3304 6.3733 11.9399 6.76382L13.3541 8.17804ZM18.1176 10.0588C18.1176 14.5096 14.5096 18.1176 10.0588 18.1176V20.1176C15.6142 20.1176 20.1176 15.6142 20.1176 10.0588H18.1176ZM10.0588 18.1176C5.60806 18.1176 2 14.5096 2 10.0588H0C0 15.6142 4.50349 20.1176 10.0588 20.1176V18.1176ZM2 10.0588C2 5.60806 5.60806 2 10.0588 2V0C4.50349 0 0 4.50349 0 10.0588H2ZM10.0588 2C14.5096 2 18.1176 5.60806 18.1176 10.0588H20.1176C20.1176 4.50349 15.6142 0 10.0588 0V2ZM15.8223 17.2365L22.2929 23.7071L23.7071 22.2929L17.2365 15.8223L15.8223 17.2365ZM13.3542 11.9397L8.17774 6.76323L6.76352 8.17744L11.94 13.3539L13.3542 11.9397ZM8.1777 13.3545L13.3541 8.17804L11.9399 6.76382L6.76348 11.9403L8.1777 13.3545Z"
            fill="#FFFFFF"
        />
    </g>
    <defs>
        <clipPath id="clip0_803_17723">
            <rect width="24" height="24" fill="white" />
        </clipPath>
    </defs>
</svg>